<svg xmlns="http://www.w3.org/2000/svg" version="1.1" xmlns:xlink="http://www.w3.org/1999/xlink" xmlns:svgjs="http://svgjs.dev/svgjs" viewBox="0 0 800 800"><defs><linearGradient x1="50%" y1="0%" x2="50%" y2="100%" id="ffflurry-grad" gradientTransform="rotate(270)"><stop stop-color="hsl(0, 0%, 0%)" stop-opacity="1" offset="0%"></stop><stop stop-color="hsl(1.4, 100%, 67%)" stop-opacity="1" offset="45%"></stop><stop stop-color="hsl(167, 52%, 78%)" stop-opacity="1" offset="100%"></stop></linearGradient></defs><rect width="100%" height="100%" fill="hsl(0, 0%, 0%)"></rect><g fill="url(#ffflurry-grad)"><rect width="56" height="3" x="323" y="83.5" rx="1.5" transform="rotate(45, 351, 85)" opacity="0.37"></rect><rect width="117" height="3" x="36.5" y="762.5" rx="1.5" transform="rotate(45, 95, 764)" opacity="0.39"></rect><rect width="254" height="3" x="362" y="763.5" rx="1.5" transform="rotate(45, 489, 765)" opacity="0.58"></rect><rect width="180" height="3" x="643" y="44.5" rx="1.5" transform="rotate(45, 733, 46)" opacity="0.86"></rect><rect width="95" height="3" x="567.5" y="698.5" rx="1.5" transform="rotate(45, 615, 700)" opacity="0.42"></rect><rect width="245" height="3" x="652.5" y="576.5" rx="1.5" transform="rotate(45, 775, 578)" opacity="0.52"></rect><rect width="188" height="3" x="585" y="508.5" rx="1.5" transform="rotate(45, 679, 510)" opacity="0.33"></rect><rect width="564" height="3" x="207" y="412.5" rx="1.5" transform="rotate(45, 489, 414)" opacity="0.13"></rect><rect width="89" height="3" x="251.5" y="132.5" rx="1.5" transform="rotate(45, 296, 134)" opacity="0.95"></rect><rect width="298" height="3" x="249" y="399.5" rx="1.5" transform="rotate(45, 398, 401)" opacity="0.41"></rect><rect width="298" height="3" x="218" y="329.5" rx="1.5" transform="rotate(45, 367, 331)" opacity="0.76"></rect><rect width="387" height="3" x="-45.5" y="388.5" rx="1.5" transform="rotate(45, 148, 390)" opacity="0.30"></rect><rect width="321" height="3" x="413.5" y="629.5" rx="1.5" transform="rotate(45, 574, 631)" opacity="0.52"></rect><rect width="217" height="3" x="632.5" y="633.5" rx="1.5" transform="rotate(45, 741, 635)" opacity="0.68"></rect><rect width="338" height="3" x="-121" y="634.5" rx="1.5" transform="rotate(45, 48, 636)" opacity="0.61"></rect><rect width="224" height="3" x="416" y="63.5" rx="1.5" transform="rotate(45, 528, 65)" opacity="0.44"></rect><rect width="231" height="3" x="251.5" y="148.5" rx="1.5" transform="rotate(45, 367, 150)" opacity="0.62"></rect><rect width="49" height="3" x="741.5" y="391.5" rx="1.5" transform="rotate(45, 766, 393)" opacity="0.44"></rect><rect width="614" height="3" x="350" y="130.5" rx="1.5" transform="rotate(45, 657, 132)" opacity="0.20"></rect><rect width="335" height="3" x="421.5" y="552.5" rx="1.5" transform="rotate(45, 589, 554)" opacity="0.23"></rect><rect width="357" height="3" x="107.5" y="386.5" rx="1.5" transform="rotate(45, 286, 388)" opacity="0.73"></rect><rect width="513" height="3" x="-210.5" y="458.5" rx="1.5" transform="rotate(45, 46, 460)" opacity="0.96"></rect><rect width="488" height="3" x="416" y="762.5" rx="1.5" transform="rotate(45, 660, 764)" opacity="0.65"></rect><rect width="503" height="3" x="-108.5" y="637.5" rx="1.5" transform="rotate(45, 143, 639)" opacity="0.44"></rect><rect width="152" height="3" x="551" y="476.5" rx="1.5" transform="rotate(45, 627, 478)" opacity="0.30"></rect><rect width="435" height="3" x="343.5" y="454.5" rx="1.5" transform="rotate(45, 561, 456)" opacity="0.52"></rect><rect width="94" height="3" x="90" y="49.5" rx="1.5" transform="rotate(45, 137, 51)" opacity="0.61"></rect><rect width="58" height="3" x="710" y="279.5" rx="1.5" transform="rotate(45, 739, 281)" opacity="0.12"></rect><rect width="355" height="3" x="351.5" y="187.5" rx="1.5" transform="rotate(45, 529, 189)" opacity="0.25"></rect><rect width="281" height="3" x="-92.5" y="151.5" rx="1.5" transform="rotate(45, 48, 153)" opacity="0.55"></rect><rect width="124" height="3" x="382" y="693.5" rx="1.5" transform="rotate(45, 444, 695)" opacity="0.21"></rect><rect width="111" height="3" x="432.5" y="576.5" rx="1.5" transform="rotate(45, 488, 578)" opacity="0.64"></rect><rect width="372" height="3" x="-133" y="562.5" rx="1.5" transform="rotate(45, 53, 564)" opacity="0.44"></rect><rect width="84" height="3" x="294" y="527.5" rx="1.5" transform="rotate(45, 336, 529)" opacity="0.95"></rect><rect width="177" height="3" x="597.5" y="685.5" rx="1.5" transform="rotate(45, 686, 687)" opacity="0.70"></rect><rect width="397" height="3" x="103.5" y="457.5" rx="1.5" transform="rotate(45, 302, 459)" opacity="0.73"></rect><rect width="331" height="3" x="65.5" y="147.5" rx="1.5" transform="rotate(45, 231, 149)" opacity="0.27"></rect><rect width="178" height="3" x="412" y="24.5" rx="1.5" transform="rotate(45, 501, 26)" opacity="0.74"></rect><rect width="634" height="3" x="-272" y="270.5" rx="1.5" transform="rotate(45, 45, 272)" opacity="1.00"></rect><rect width="370" height="3" x="55" y="548.5" rx="1.5" transform="rotate(45, 240, 550)" opacity="0.67"></rect><rect width="373" height="3" x="503.5" y="388.5" rx="1.5" transform="rotate(45, 690, 390)" opacity="0.16"></rect><rect width="204" height="3" x="321" y="268.5" rx="1.5" transform="rotate(45, 423, 270)" opacity="0.49"></rect><rect width="103" height="3" x="522.5" y="761.5" rx="1.5" transform="rotate(45, 574, 763)" opacity="0.21"></rect><rect width="462" height="3" x="519" y="760.5" rx="1.5" transform="rotate(45, 750, 762)" opacity="0.45"></rect><rect width="300" height="3" x="367" y="117.5" rx="1.5" transform="rotate(45, 517, 119)" opacity="0.54"></rect><rect width="55" height="3" x="118.5" y="157.5" rx="1.5" transform="rotate(45, 146, 159)" opacity="0.90"></rect><rect width="382" height="3" x="341" y="339.5" rx="1.5" transform="rotate(45, 532, 341)" opacity="0.26"></rect><rect width="135" height="3" x="341.5" y="20.5" rx="1.5" transform="rotate(45, 409, 22)" opacity="0.81"></rect><rect width="125" height="3" x="541.5" y="52.5" rx="1.5" transform="rotate(45, 604, 54)" opacity="0.86"></rect><rect width="118" height="3" x="87" y="509.5" rx="1.5" transform="rotate(45, 146, 511)" opacity="0.50"></rect><rect width="420" height="3" x="204" y="195.5" rx="1.5" transform="rotate(45, 414, 197)" opacity="0.46"></rect><rect width="38" height="3" x="29" y="706.5" rx="1.5" transform="rotate(45, 48, 708)" opacity="0.62"></rect><rect width="398" height="3" x="451" y="613.5" rx="1.5" transform="rotate(45, 650, 615)" opacity="0.14"></rect><rect width="232" height="3" x="241" y="690.5" rx="1.5" transform="rotate(45, 357, 692)" opacity="0.71"></rect><rect width="227" height="3" x="650.5" y="689.5" rx="1.5" transform="rotate(45, 764, 691)" opacity="0.89"></rect><rect width="148" height="3" x="270" y="615.5" rx="1.5" transform="rotate(45, 344, 617)" opacity="1.00"></rect><rect width="225" height="3" x="640.5" y="486.5" rx="1.5" transform="rotate(45, 753, 488)" opacity="0.61"></rect><rect width="74" height="3" x="477" y="270.5" rx="1.5" transform="rotate(45, 514, 272)" opacity="0.11"></rect><rect width="86" height="3" x="-6" y="44.5" rx="1.5" transform="rotate(45, 37, 46)" opacity="0.44"></rect><rect width="81" height="3" x="126.5" y="262.5" rx="1.5" transform="rotate(45, 167, 264)" opacity="0.38"></rect><rect width="422" height="3" x="311" y="675.5" rx="1.5" transform="rotate(45, 522, 677)" opacity="0.59"></rect><rect width="492" height="3" x="-33" y="412.5" rx="1.5" transform="rotate(45, 213, 414)" opacity="0.45"></rect><rect width="587" height="3" x="28.5" y="222.5" rx="1.5" transform="rotate(45, 322, 224)" opacity="0.99"></rect><rect width="178" height="3" x="345" y="527.5" rx="1.5" transform="rotate(45, 434, 529)" opacity="0.59"></rect><rect width="62" height="3" x="677" y="574.5" rx="1.5" transform="rotate(45, 708, 576)" opacity="0.19"></rect><rect width="158" height="3" x="0" y="350.5" rx="1.5" transform="rotate(45, 79, 352)" opacity="0.25"></rect><rect width="176" height="3" x="357" y="139.5" rx="1.5" transform="rotate(45, 445, 141)" opacity="0.49"></rect><rect width="287" height="3" x="83.5" y="667.5" rx="1.5" transform="rotate(45, 227, 669)" opacity="0.34"></rect><rect width="498" height="3" x="23" y="37.5" rx="1.5" transform="rotate(45, 272, 39)" opacity="0.38"></rect><rect width="501" height="3" x="371.5" y="350.5" rx="1.5" transform="rotate(45, 622, 352)" opacity="0.74"></rect><rect width="202" height="3" x="263" y="764.5" rx="1.5" transform="rotate(45, 364, 766)" opacity="0.18"></rect><rect width="241" height="3" x="118.5" y="755.5" rx="1.5" transform="rotate(45, 239, 757)" opacity="0.92"></rect><rect width="96" height="3" x="374" y="73.5" rx="1.5" transform="rotate(45, 422, 75)" opacity="0.62"></rect><rect width="392" height="3" x="212" y="466.5" rx="1.5" transform="rotate(45, 408, 468)" opacity="0.14"></rect><rect width="428" height="3" x="49" y="287.5" rx="1.5" transform="rotate(45, 263, 289)" opacity="0.46"></rect><rect width="377" height="3" x="563.5" y="164.5" rx="1.5" transform="rotate(45, 752, 166)" opacity="0.16"></rect><rect width="92" height="3" x="580" y="236.5" rx="1.5" transform="rotate(45, 626, 238)" opacity="0.43"></rect></g></svg>